<svg xmlns="http://www.w3.org/2000/svg" width="62" height="62"><path fill="#FF710A" d="M54.5 0h-46C4.1 0 0 3.1 0 7.5v46C0 57.9 4.1 62 8.5 62h46c4.4 0 7.5-4.1 7.5-8.5v-46C62 3.1 58.9 0 54.5 0z"/><path fill="#FFF" d="M59 22v31.5c0 2.8-1.7 5.5-4.5 5.5h-46C5.7 59 3 56.3 3 53.5V22h56zm-33-7.9c0 1.7 1.3 2.4 2.8 2.4 1 0 2.5-.3 2.5-1.6 0-1.4-1.9-1.6-3.8-2.1s-3.8-1.2-3.8-3.7c0-2.6 2.5-3.9 4.8-3.9 2.7 0 5.1 1.2 5.1 4.1h-2.7c-.1-1.5-1.2-1.9-2.5-1.9-.9 0-1.9.4-1.9 1.5 0 1 .6 1.1 3.8 1.9.9.2 3.8.8 3.8 3.7 0 2.4-1.9 4.1-5.3 4.1-2.8 0-5.5-1.4-5.5-4.6H26v.1zm9.7-8.6h2.8v12.9h-2.8V5.5z"/><path fill="#1E1B19" d="M26.4 51.3h-4.3V37.7h-5.3v-3.2c3 .1 5.7-1 6.2-4.2h3.4v21zM43 35.7c-.3-1.4-1.3-2.6-2.8-2.6-3.1 0-3.9 4-4 6.4l.1.1c1.2-1.6 2.7-2.3 4.7-2.3 1.8 0 3.6.8 4.8 2.2 1.1 1.3 1.6 3 1.6 4.7 0 4.3-3 7.7-7.4 7.7-6.4 0-8.1-5.5-8.1-10.9 0-5.1 2.3-11 8.3-11 3.6 0 6.3 2.1 6.8 5.8h-4v-.1zm-6.5 8.6c0 1.9 1.3 3.9 3.4 3.9 2 0 3.2-2 3.2-3.8 0-2-1-4-3.2-4-2.3 0-3.4 1.9-3.4 3.9z"/></svg>